<?xml version="1.0" encoding="UTF-8" standalone="no"?> <!-- Created with Vectornator for iOS (http://vectornator.io/) --><!DOCTYPE svg PUBLIC "-//W3C//DTD SVG 1.1//EN" "http://www.w3.org/Graphics/SVG/1.1/DTD/svg11.dtd">
<svg height="100%" width="100%" style="fill-rule:nonzero;clip-rule:evenodd;stroke-linecap:round;stroke-linejoin:round;" viewBox="0 0 100 100" version="1.1" xmlns:xlink="http://www.w3.org/1999/xlink" xml:space="preserve" xmlns="http://www.w3.org/2000/svg" xmlns:vectornator="http://vectornator.io">
<metadata>
<vectornator:setting key="WDSnapToGrid" value="false"/>
<vectornator:setting value="Pixels" key="WDUnits"/>
<vectornator:setting key="UndoHistoryDisabled" value="true"/>
<vectornator:setting key="WDIsolateActiveLayer" value="false"/>
<vectornator:setting value="false" key="WDDisplayWhiteBackground"/>
<vectornator:setting value="false" key="IsTimeLapseWatermarkDisabled"/>
<vectornator:setting key="WDOutlineMode" value="false"/>
<vectornator:setting value="false" key="WDCMYKEnabledKey"/>
<vectornator:setting value="false" key="WDSnapToEdges"/>
<vectornator:setting key="WDGuidesVisible" value="true"/>
<vectornator:setting value="false" key="WDDynamicGuides"/>
<vectornator:setting key="WDRulersVisible" value="true"/>
<vectornator:setting value="false" key="WDSnapToPoints"/>
<vectornator:setting value="true" key="VNSnapToGuides"/>
<vectornator:setting key="VNDimensionsVisible" value="true"/>
</metadata>
<defs/>
<g id="Layer 1" vectornator:layerName="Layer 1">
<path d="M50.184+112.644L71.0243+112.685" stroke-linejoin="round" fill="none" opacity="1" stroke-width="10" stroke="#000000" stroke-linecap="round"/>
<path stroke="#000000" fill="none" opacity="1" d="M21.209-8.63282L39.5684-8.34296" stroke-linecap="round" stroke-width="10" stroke-linejoin="round"/>
<path d="M68.5471+38.8181C47.0906+21.465+43.7642-9.9964+61.1173-31.4529C78.4705-52.9093+109.932-56.2358+131.388-38.8827C152.845-21.5295+156.171+9.93186+138.818+31.3883C121.465+52.8448+90.0036+56.1712+68.5471+38.8181Z" stroke="#000000" stroke-width="5" stroke-linecap="round" opacity="1" fill="none" stroke-linejoin="round"/>
<path fill="none" opacity="1" stroke="#000000" stroke-linecap="round" stroke-linejoin="round" stroke-width="5" d="M26.9538-16.2477C26.9538-16.4331+27.8073-16.5835+28.86-16.5835C29.9127-16.5835+30.7661-16.4331+30.7661-16.2477C30.7661-16.0622+29.9127-15.9119+28.86-15.9119C27.8073-15.9119+26.9538-16.0622+26.9538-16.2477Z"/>
</g>
</svg>
