<?xml version="1.0" encoding="UTF-8" standalone="no"?> <!-- Created with Vectornator for iOS (http://vectornator.io/) --><!DOCTYPE svg PUBLIC "-//W3C//DTD SVG 1.1//EN" "http://www.w3.org/Graphics/SVG/1.1/DTD/svg11.dtd">
<svg xml:space="preserve" version="1.1" viewBox="0 0 100 100" width="100%" height="100%" style="fill-rule:nonzero;clip-rule:evenodd;stroke-linecap:round;stroke-linejoin:round;" xmlns="http://www.w3.org/2000/svg" xmlns:vectornator="http://vectornator.io" xmlns:xlink="http://www.w3.org/1999/xlink">
<metadata>
<vectornator:setting key="WDSnapToGrid" value="false"/>
<vectornator:setting value="Pixels" key="WDUnits"/>
<vectornator:setting key="UndoHistoryDisabled" value="true"/>
<vectornator:setting key="WDIsolateActiveLayer" value="false"/>
<vectornator:setting key="WDDisplayWhiteBackground" value="false"/>
<vectornator:setting value="false" key="IsTimeLapseWatermarkDisabled"/>
<vectornator:setting value="false" key="WDOutlineMode"/>
<vectornator:setting value="false" key="WDCMYKEnabledKey"/>
<vectornator:setting key="WDSnapToEdges" value="false"/>
<vectornator:setting value="true" key="WDGuidesVisible"/>
<vectornator:setting key="WDDynamicGuides" value="false"/>
<vectornator:setting key="WDRulersVisible" value="true"/>
<vectornator:setting key="WDSnapToPoints" value="false"/>
<vectornator:setting key="VNSnapToGuides" value="true"/>
<vectornator:setting value="true" key="VNDimensionsVisible"/>
</metadata>
<defs/>
<g vectornator:layerName="Layer 1" id="Layer 1">
<path stroke-linejoin="round" opacity="1" d="M50.184+112.644L71.0243+112.685" stroke-linecap="round" stroke-width="10" stroke="#000000" fill="none"/>
<path stroke-linecap="round" opacity="1" stroke-linejoin="round" stroke="#000000" d="M21.209-8.63282L39.5684-8.34296" fill="none" stroke-width="10"/>
<path fill="none" stroke-width="5" opacity="1" stroke-linejoin="round" d="M-31.4529+138.818C-52.9094+121.465-56.2358+90.0036-38.8827+68.5471C-21.5295+47.0907+9.93186+43.7642+31.3883+61.1173C52.8448+78.4705+56.1712+109.932+38.8181+131.388C21.465+152.845-9.99639+156.171-31.4529+138.818Z" stroke="#000000" stroke-linecap="round"/>
<path stroke-linejoin="round" stroke-linecap="round" stroke="#000000" stroke-width="5" d="M26.9538-16.2477C26.9538-16.4331+27.8073-16.5835+28.86-16.5835C29.9127-16.5835+30.7661-16.4331+30.7661-16.2477C30.7661-16.0622+29.9127-15.9119+28.86-15.9119C27.8073-15.9119+26.9538-16.0622+26.9538-16.2477Z" opacity="1" fill="none"/>
</g>
</svg>
